{"glyphs":{":":{"x_min":0,"x_max":327,"ha":327,"o":"m 164 433 q 180 433 193 427 q 207 422 216 412 q 226 402 231 389 q 236 375 236 361 q 236 346 230 333 q 225 320 215 310 q 205 300 191 294 q 178 289 164 289 q 149 289 136 294 q 123 300 113 310 q 103 320 97 333 q 91 346 91 361 q 91 377 97 390 q 103 403 113 413 q 123 422 136 428 q 149 433 164 433 z m 164 135 q 180 135 193 129 q 207 124 216 114 q 226 104 231 90 q 236 77 236 62 q 236 48 230 35 q 225 21 215 11 q 205 1 191 -4 q 178 -10 164 -10 q 149 -10 136 -4 q 123 1 113 11 q 103 21 97 35 q 91 48 91 62 q 91 79 97 92 q 103 105 113 115 q 123 124 136 129 q 149 135 164 135 z"},"$":{"x_min":0,"x_max":622,"ha":622,"o":"m 358 767 l 358 711 q 396 708 441 698 q 486 689 528 671 l 493 586 q 462 597 428 605 q 395 613 359 616 l 359 421 q 375 417 398 411 q 420 405 444 395 q 467 385 490 369 q 513 354 531 331 q 549 307 561 274 q 572 242 572 197 q 572 161 562 132 q 553 103 538 82 q 522 60 501 45 q 480 29 456 19 q 433 8 407 2 q 382 -4 358 -7 l 358 -64 l 258 -64 l 258 -11 q 236 -9 210 -6 q 185 -3 157 2 q 130 8 103 16 q 75 24 50 36 l 86 122 q 124 107 166 97 q 209 87 258 85 l 258 317 q 244 321 222 326 q 201 332 178 341 q 155 350 133 365 q 110 379 92 401 q 74 424 62 456 q 51 487 51 531 q 51 576 70 608 q 88 640 118 662 q 147 683 185 695 q 222 707 258 711 l 258 767 z m 258 610 q 227 602 208 583 q 190 564 190 531 q 190 513 194 500 q 199 486 208 477 q 216 467 229 460 q 242 453 258 447 z m 358 97 q 393 109 413 133 q 433 158 433 197 q 433 217 428 232 q 423 247 413 258 q 404 269 390 276 q 376 284 358 291 z"},"?":{"x_min":0,"x_max":584,"ha":584,"o":"m 59 666 q 110 689 166 701 q 221 713 273 713 q 325 713 366 702 q 408 691 437 669 q 465 647 481 614 q 496 581 496 536 q 496 494 482 464 q 469 433 442 409 q 415 385 375 365 q 335 345 284 323 l 284 206 l 167 187 l 138 366 q 177 383 209 396 q 242 409 267 420 q 292 431 310 442 q 329 453 340 466 q 352 479 358 495 q 363 511 363 533 q 363 554 356 569 q 349 584 335 594 q 322 604 304 608 q 286 612 264 612 q 245 612 223 609 q 202 606 180 600 q 159 595 137 587 q 116 580 95 571 z m 225 128 q 241 128 253 123 q 266 117 275 108 q 284 98 289 86 q 294 73 294 59 q 294 45 289 32 q 283 20 274 10 q 264 1 252 -4 q 239 -10 225 -10 q 211 -10 198 -4 q 186 1 177 10 q 167 20 162 32 q 156 45 156 59 q 156 74 162 87 q 167 100 177 109 q 187 118 199 123 q 211 128 225 128 z"},"<":{"x_min":0,"x_max":550,"ha":550,"o":"m 501 512 l 501 388 l 192 253 l 501 116 l 501 -10 l 49 214 l 49 291 z"},"'":{"x_min":0,"x_max":244,"ha":244,"o":"m 54 684 q 74 698 96 706 q 119 713 141 713 q 155 713 169 709 q 182 705 192 697 q 203 688 209 675 q 215 663 215 646 q 215 625 209 607 q 203 588 191 567 q 179 545 161 518 q 143 490 118 452 l 34 452 l 85 593 z"},"=":{"x_min":0,"x_max":594,"ha":594,"o":"m 521 414 l 521 321 l 73 321 l 73 414 z m 521 228 l 521 135 l 73 135 l 73 228 z"},"a":{"x_min":0,"x_max":557,"ha":557,"o":"m 91 483 q 109 490 133 497 q 156 503 182 508 q 208 513 236 516 q 264 519 293 519 q 333 519 369 513 q 404 506 428 492 q 451 477 464 452 q 478 427 478 389 l 478 190 q 478 156 478 130 q 479 103 480 78 q 481 68 482 61 q 483 53 484 46 q 485 39 487 31 q 489 23 491 14 q 461 7 431 1 q 401 -5 370 -11 q 365 2 362 17 q 358 31 356 50 l 349 50 q 332 32 314 21 q 297 9 279 1 q 260 -6 240 -9 q 220 -12 198 -12 q 165 -12 136 -4 q 107 4 86 21 q 64 38 52 63 q 41 89 41 124 q 41 153 47 176 q 53 199 64 217 q 75 235 91 249 q 106 262 125 272 q 164 293 210 301 q 257 308 306 308 l 348 308 l 348 372 q 348 390 343 400 q 337 411 327 416 q 318 421 305 423 q 292 425 278 425 q 238 425 198 415 q 158 405 121 390 z m 348 236 l 338 236 q 304 236 272 231 q 241 227 217 215 q 193 204 178 186 q 164 167 164 140 q 164 109 182 92 q 200 76 232 76 q 247 76 263 80 q 279 84 295 92 q 311 99 324 110 q 338 122 348 136 z"},"L":{"x_min":0,"x_max":553,"ha":553,"o":"m 232 702 l 232 100 l 506 100 l 506 0 l 96 0 l 96 702 z"},"3":{"x_min":0,"x_max":536,"ha":536,"o":"m 91 532 q 109 525 124 521 q 139 517 156 515 q 174 512 197 511 q 220 511 256 511 l 423 511 l 423 436 l 308 306 q 343 305 377 294 q 411 283 435 258 q 461 231 474 194 q 487 157 487 119 q 487 73 471 37 q 455 0 427 -27 q 400 -55 362 -74 q 324 -93 280 -106 q 247 -116 217 -122 q 186 -127 157 -130 q 129 -133 102 -134 q 75 -135 49 -136 l 49 -37 q 87 -35 125 -30 q 163 -25 196 -16 q 229 -6 258 7 q 287 20 308 36 q 329 53 341 75 q 353 96 353 123 q 353 146 346 163 q 339 180 327 190 q 315 200 298 205 q 282 209 262 209 q 243 209 221 205 q 200 201 178 194 l 141 267 l 267 411 l 206 411 q 189 411 169 412 q 150 413 130 415 q 110 418 90 423 q 71 428 54 437 z"},";":{"x_min":0,"x_max":354,"ha":354,"o":"m 192 433 q 208 433 221 427 q 235 422 244 412 q 254 402 259 389 q 264 375 264 361 q 264 346 259 333 q 253 320 243 310 q 233 300 220 294 q 207 289 192 289 q 177 289 164 294 q 151 300 141 310 q 131 320 125 333 q 120 346 120 361 q 120 377 125 390 q 131 403 141 413 q 151 422 164 428 q 177 433 192 433 z m 118 83 q 135 95 156 102 q 177 109 196 109 q 210 109 222 106 q 234 102 244 94 q 253 86 258 75 q 264 63 264 48 q 264 29 258 12 q 253 -4 242 -24 q 231 -43 214 -68 q 198 -93 176 -128 l 100 -128 l 146 0 z"},"J":{"x_min":0,"x_max":389,"ha":389,"o":"m 305 702 l 305 209 q 305 146 300 99 q 295 51 279 14 q 270 -6 257 -25 q 244 -44 224 -62 q 204 -81 177 -98 q 151 -116 115 -133 l 61 -58 q 86 -35 107 -16 q 127 3 141 28 q 155 52 162 86 q 169 120 169 171 l 169 702 z"},"V":{"x_min":0,"x_max":736,"ha":736,"o":"m 681 702 l 432 -1 l 305 -1 l 55 702 l 195 702 l 369 151 l 541 702 z"},"\"":{"x_min":0,"x_max":459,"ha":459,"o":"m 270 685 q 290 699 312 706 q 335 714 356 714 q 371 714 385 710 q 398 706 408 697 q 418 688 425 676 q 431 663 431 646 q 431 625 425 607 q 419 589 407 567 q 395 545 376 518 q 358 491 334 453 l 250 453 l 301 594 z m 54 684 q 74 698 96 706 q 119 713 141 713 q 155 713 169 709 q 182 705 192 697 q 203 688 209 675 q 215 663 215 646 q 215 625 209 607 q 203 588 191 567 q 179 545 161 518 q 143 490 118 452 l 34 452 l 85 593 z"},"7":{"x_min":0,"x_max":533,"ha":533,"o":"m 310 511 q 341 511 363 512 q 384 513 402 515 q 420 518 436 521 q 452 523 470 528 l 494 458 q 447 390 414 336 q 381 283 359 239 q 337 194 324 156 q 312 117 305 77 q 302 57 300 38 q 298 20 297 0 q 296 -21 296 -43 q 295 -65 295 -93 l 295 -129 l 162 -129 q 162 -70 163 -21 q 165 27 171 71 q 177 114 190 156 q 203 199 225 246 q 242 283 265 323 q 288 362 319 411 l 44 411 l 44 511 z"},"S":{"x_min":0,"x_max":621,"ha":621,"o":"m 86 122 q 126 106 173 95 q 219 85 273 85 q 308 85 337 91 q 367 98 388 111 q 409 125 421 146 q 433 167 433 197 q 433 229 420 249 q 407 268 384 280 q 360 292 327 300 q 294 309 253 319 q 208 331 171 346 q 133 361 107 385 q 81 409 66 444 q 51 479 51 531 q 51 565 63 593 q 74 620 94 640 q 113 661 139 675 q 165 689 193 698 q 221 707 250 710 q 279 714 306 714 q 324 714 350 712 q 376 710 406 705 q 436 700 467 692 q 499 684 528 671 l 493 586 q 454 600 412 609 q 370 618 323 618 q 294 618 270 613 q 245 608 227 598 q 209 588 200 571 q 190 555 190 531 q 190 501 202 484 q 214 467 236 456 q 259 445 291 438 q 324 430 365 419 q 410 408 448 392 q 485 376 513 351 q 541 326 556 289 q 572 251 572 197 q 572 149 557 115 q 542 81 517 58 q 493 35 461 21 q 430 7 398 0 q 366 -7 335 -10 q 305 -12 282 -12 q 260 -11 232 -9 q 204 -6 173 -1 q 142 4 111 13 q 79 22 50 36 z"},"}":{"x_min":0,"x_max":388,"ha":388,"o":"m 128 764 q 175 764 207 754 q 238 744 256 727 q 275 709 283 687 q 291 664 291 638 l 291 449 q 291 420 304 397 q 317 375 338 353 q 316 329 304 307 q 291 285 291 256 l 291 67 q 291 41 283 18 q 275 -4 256 -21 q 238 -39 207 -49 q 175 -59 128 -59 l 79 -59 l 79 26 q 110 26 127 31 q 145 36 155 47 q 165 59 167 75 q 170 91 170 112 l 170 256 q 170 289 181 311 q 191 333 208 353 q 190 373 180 395 q 170 417 170 449 l 170 593 q 170 614 167 630 q 165 646 155 658 q 145 669 127 674 q 110 679 79 679 l 79 764 z"},"Z":{"x_min":0,"x_max":630,"ha":630,"o":"m 555 702 l 555 621 l 234 100 l 558 100 l 558 0 l 72 0 l 72 79 l 394 602 l 83 602 l 83 702 z"},"x":{"x_min":0,"x_max":615,"ha":615,"o":"m 147 519 l 305 337 l 440 508 l 576 508 l 375 256 l 539 63 l 442 -12 l 297 156 l 175 0 l 39 0 l 227 237 l 50 444 z"},")":{"x_min":0,"x_max":405,"ha":405,"o":"m 143 672 q 185 641 219 600 q 253 559 277 510 q 301 460 314 404 q 327 348 327 285 q 327 223 314 166 q 301 110 277 61 q 253 12 219 -29 q 185 -70 143 -102 l 79 -76 q 109 -32 132 8 q 154 48 168 91 q 183 133 190 180 q 197 227 197 285 q 197 343 190 390 q 183 438 168 480 q 154 522 132 562 q 109 602 79 646 z"},"&":{"x_min":0,"x_max":806,"ha":806,"o":"m 757 119 q 734 80 716 54 q 698 29 681 14 q 664 0 646 -6 q 629 -12 608 -12 q 590 -12 575 -10 q 559 -7 544 1 q 528 9 511 22 q 495 36 475 58 q 458 42 435 29 q 413 16 386 7 q 360 -2 331 -7 q 302 -12 272 -12 q 216 -12 174 3 q 132 18 104 44 q 76 71 62 107 q 48 143 48 186 q 48 219 60 252 q 71 285 96 315 q 114 337 140 360 q 166 382 200 407 q 183 430 169 450 q 155 470 146 489 q 136 507 131 526 q 126 545 126 566 q 126 593 135 618 q 144 643 162 661 q 176 676 194 686 q 212 696 234 702 q 255 708 278 710 q 302 713 326 713 q 371 713 416 707 q 460 700 497 692 l 462 593 q 449 596 435 600 q 420 603 405 605 q 389 608 374 610 q 358 611 343 611 q 327 611 313 609 q 298 606 288 601 q 277 595 271 586 q 265 576 265 562 q 265 550 268 539 q 271 528 277 516 q 283 504 293 489 q 303 475 317 457 l 488 235 q 500 256 509 282 q 518 308 521 335 l 456 335 l 456 417 l 723 417 l 723 335 l 634 335 q 623 275 604 226 q 585 177 562 141 q 568 131 576 122 q 583 113 590 105 q 598 98 604 94 q 611 89 618 89 q 624 89 630 93 q 636 97 644 106 q 651 116 661 132 q 671 147 685 171 z m 260 328 q 240 315 224 300 q 208 284 198 266 q 187 248 182 229 q 176 211 176 193 q 176 172 184 153 q 191 135 206 121 q 222 106 245 98 q 268 90 300 90 q 330 90 359 101 q 389 112 410 133 z"},"_":{"x_min":0,"x_max":568,"ha":568,"o":"m 495 98 l 495 0 l 73 0 l 73 98 z"},"v":{"x_min":0,"x_max":548,"ha":548,"o":"m 523 508 l 354 -5 l 193 -5 l 24 508 l 164 508 l 274 91 l 384 508 z"},"O":{"x_min":0,"x_max":753,"ha":753,"o":"m 376 713 q 464 713 525 686 q 585 660 623 612 q 661 564 678 497 q 694 431 694 351 q 694 271 678 204 q 661 137 623 89 q 585 42 525 15 q 464 -12 376 -12 q 290 -12 229 14 q 169 40 131 87 q 93 135 76 202 q 59 269 59 351 q 59 433 76 500 q 93 566 131 614 q 169 661 229 687 q 290 713 376 713 z m 376 613 q 325 613 291 596 q 256 580 236 547 q 215 514 206 465 q 197 416 197 351 q 197 286 206 237 q 215 188 236 155 q 256 122 291 105 q 325 88 376 88 q 427 88 462 105 q 496 121 517 154 q 538 187 547 236 q 556 285 556 351 q 556 416 547 465 q 538 515 517 547 q 496 580 462 596 q 427 613 376 613 z"},"(":{"x_min":0,"x_max":405,"ha":405,"o":"m 263 -102 q 221 -70 187 -29 q 153 12 129 61 q 105 110 92 166 q 79 223 79 285 q 79 348 92 404 q 105 460 129 510 q 153 559 187 600 q 221 641 263 672 l 327 646 q 296 602 274 562 q 252 522 237 480 q 223 438 216 390 q 209 343 209 285 q 209 227 216 180 q 223 133 237 91 q 252 48 274 8 q 296 -32 327 -76 z"},"C":{"x_min":0,"x_max":629,"ha":629,"o":"m 589 20 q 546 5 494 -3 q 442 -12 388 -12 q 297 -12 234 10 q 170 31 131 74 q 91 118 74 184 q 56 250 56 340 q 56 434 73 504 q 91 574 128 620 q 166 667 225 690 q 285 713 369 713 q 399 713 428 710 q 457 707 483 702 q 509 697 532 691 q 555 685 572 678 l 540 580 q 505 592 466 602 q 427 611 383 611 q 331 611 295 596 q 259 580 237 548 q 214 517 205 468 q 195 420 195 355 q 195 286 206 236 q 216 186 240 153 q 264 121 303 105 q 342 90 397 90 q 440 90 483 98 q 525 105 562 118 z"},"W":{"x_min":0,"x_max":912,"ha":912,"o":"m 876 702 l 796 0 l 618 0 l 456 562 l 294 0 l 116 0 l 36 702 l 169 702 l 227 175 l 228 175 l 379 702 l 533 702 l 684 175 l 685 175 l 743 702 z"},"A":{"x_min":0,"x_max":710,"ha":710,"o":"m 422 702 l 688 0 l 550 0 l 470 216 l 238 216 l 158 0 l 21 0 l 286 702 z m 354 557 l 274 314 l 434 314 z"},"f":{"x_min":0,"x_max":496,"ha":496,"o":"m 135 526 q 135 578 144 615 q 152 652 173 676 q 193 699 227 711 q 261 722 312 722 q 351 722 397 716 q 444 709 496 699 l 475 606 q 431 614 399 619 q 367 625 343 625 q 319 625 304 620 q 290 616 282 605 q 274 594 271 574 q 269 554 269 522 l 269 508 l 432 508 l 432 410 l 269 410 l 269 98 l 432 98 l 432 0 l 50 0 l 50 98 l 135 98 l 135 410 l 50 410 l 50 508 l 135 508 z"},"Q":{"x_min":0,"x_max":753,"ha":753,"o":"m 376 713 q 464 713 525 686 q 585 660 623 612 q 661 564 678 497 q 694 431 694 351 q 694 287 684 232 q 674 177 651 133 q 628 88 592 56 q 556 24 504 7 q 527 -11 545 -25 q 563 -39 581 -50 q 599 -61 619 -70 q 639 -78 666 -84 q 663 -98 660 -109 q 658 -120 654 -131 q 651 -141 646 -152 q 642 -163 636 -175 q 609 -169 590 -163 q 570 -156 552 -148 q 535 -140 517 -128 q 500 -117 478 -101 q 456 -85 427 -63 q 399 -41 360 -11 q 278 -9 221 18 q 164 45 127 92 q 91 140 75 205 q 59 271 59 351 q 59 433 76 500 q 93 566 131 614 q 169 661 229 687 q 290 713 376 713 z m 376 613 q 325 613 291 596 q 256 580 236 547 q 215 514 206 465 q 197 416 197 351 q 197 286 206 237 q 215 188 236 155 q 256 122 291 105 q 325 88 376 88 q 427 88 462 105 q 496 121 517 154 q 538 187 547 236 q 556 285 556 351 q 556 416 547 465 q 538 515 517 547 q 496 580 462 596 q 427 613 376 613 z"},"w":{"x_min":0,"x_max":770,"ha":770,"o":"m 530 95 q 544 127 557 157 q 570 186 580 215 q 590 243 596 273 q 602 303 602 338 q 602 355 600 372 q 598 388 594 405 q 589 423 583 444 q 577 464 568 491 q 585 497 601 501 q 617 505 632 509 q 647 513 662 517 q 677 520 694 523 q 706 500 713 483 q 720 466 725 450 q 730 433 733 416 q 736 399 736 381 q 736 349 729 315 q 722 282 710 248 q 699 213 683 179 q 667 146 651 113 q 634 81 617 50 q 600 20 584 -7 l 428 -7 l 382 171 l 308 -7 l 154 -7 l 22 508 l 152 508 l 256 95 l 348 310 l 296 508 l 429 508 z"},"-":{"x_min":0,"x_max":598,"ha":598,"o":"m 498 321 l 498 228 l 100 228 l 100 321 z"},"E":{"x_min":0,"x_max":582,"ha":582,"o":"m 509 702 l 509 602 l 225 602 l 225 443 l 426 443 l 426 343 l 225 343 l 225 100 l 519 100 l 519 0 l 89 0 l 89 702 z"},"s":{"x_min":0,"x_max":515,"ha":515,"o":"m 262 519 q 309 519 354 510 q 398 502 432 488 q 425 469 416 449 q 407 429 398 411 q 373 419 340 425 q 307 431 275 431 q 256 431 240 428 q 223 425 210 419 q 198 414 190 404 q 183 395 183 381 q 183 362 193 351 q 202 340 218 333 q 234 326 255 322 q 276 317 299 312 q 334 304 365 291 q 396 278 419 259 q 442 239 454 210 q 467 182 466 142 q 465 99 446 69 q 427 40 395 22 q 364 4 323 -4 q 283 -12 241 -12 q 213 -12 186 -9 q 158 -6 132 0 q 107 5 85 13 q 63 21 46 30 q 55 49 65 69 q 75 90 85 107 q 99 102 116 96 q 134 90 154 86 q 174 82 195 79 q 215 77 235 77 q 256 77 274 80 q 293 83 307 91 q 321 99 329 111 q 337 124 337 142 q 337 162 327 174 q 318 187 302 194 q 286 201 265 206 q 244 210 221 214 q 187 221 156 234 q 125 247 103 267 q 80 287 66 315 q 53 344 54 382 q 54 420 72 447 q 90 473 119 489 q 148 504 185 511 q 222 519 262 519 z"},">":{"x_min":0,"x_max":550,"ha":550,"o":"m 49 512 l 501 291 l 501 214 l 49 -10 l 49 116 l 358 253 l 49 388 z"},"l":{"x_min":0,"x_max":250,"ha":250,"o":"m 188 199 q 188 159 188 131 q 189 104 191 83 q 192 73 193 65 q 194 57 195 49 q 196 42 198 34 q 199 26 202 17 q 169 7 137 0 q 105 -7 71 -12 q 64 10 59 35 q 54 60 54 89 l 54 703 l 188 703 z"},"8":{"x_min":0,"x_max":589,"ha":589,"o":"m 297 642 q 317 642 341 639 q 364 636 388 629 q 411 622 433 611 q 454 600 471 582 q 487 565 497 541 q 507 518 507 486 q 507 399 439 344 q 462 332 481 317 q 500 303 513 283 q 526 264 533 239 q 540 214 540 181 q 540 143 529 114 q 518 84 499 63 q 480 42 456 28 q 431 13 403 4 q 376 -4 348 -8 q 320 -12 294 -12 q 268 -12 239 -8 q 210 -4 183 4 q 156 13 131 27 q 107 42 89 63 q 70 85 60 115 q 49 145 49 185 q 49 213 57 238 q 64 262 78 283 q 92 303 112 320 q 131 336 155 349 q 141 359 128 372 q 116 385 107 401 q 98 417 93 438 q 88 459 88 486 q 88 518 98 541 q 108 565 125 582 q 142 600 163 611 q 185 623 208 629 q 231 636 254 639 q 277 642 297 642 z m 297 557 q 278 557 263 552 q 247 548 236 540 q 225 531 218 517 q 212 503 212 484 q 212 457 224 441 q 236 424 255 414 q 274 404 298 398 q 321 392 344 387 q 356 397 364 409 q 371 421 375 434 q 380 447 382 460 q 383 473 383 484 q 383 503 377 517 q 370 531 358 540 q 347 548 331 552 q 315 557 297 557 z m 245 292 q 228 282 216 271 q 203 260 195 248 q 188 235 184 219 q 180 204 180 185 q 180 131 210 102 q 240 73 294 73 q 349 73 379 101 q 409 129 409 181 q 409 214 394 233 q 379 252 355 263 q 332 274 303 280 q 273 286 245 292 z"},"\\":{"x_min":0,"x_max":595,"ha":595,"o":"m 173 702 l 520 0 l 422 0 l 76 702 z"},"e":{"x_min":0,"x_max":587,"ha":587,"o":"m 502 23 q 482 15 459 8 q 435 2 409 -2 q 383 -7 357 -9 q 330 -12 305 -12 q 176 -12 111 50 q 45 112 45 239 q 45 296 58 347 q 71 397 101 436 q 130 474 178 497 q 227 519 296 519 q 418 519 479 454 q 539 390 539 257 l 539 218 l 178 218 q 179 185 186 160 q 192 134 208 117 q 224 100 250 91 q 276 82 315 82 q 349 82 389 90 q 428 99 471 115 z m 405 305 q 401 426 296 426 q 242 426 214 395 q 186 363 180 305 z"},"b":{"x_min":0,"x_max":603,"ha":603,"o":"m 219 703 l 219 442 l 221 442 q 235 460 251 475 q 268 489 286 500 q 305 510 327 515 q 349 521 375 521 q 427 521 462 500 q 497 480 519 447 q 541 413 550 368 q 560 324 560 275 q 560 208 544 156 q 529 103 495 66 q 461 29 406 10 q 350 -10 269 -10 q 219 -10 175 -6 q 131 -1 86 5 l 86 703 z m 219 97 q 239 92 258 90 q 277 87 294 87 q 323 87 347 95 q 371 102 389 119 q 406 136 416 165 q 426 193 426 235 q 426 276 422 311 q 419 345 409 370 q 398 395 379 409 q 360 423 329 423 q 310 423 294 416 q 279 409 266 396 q 252 384 241 367 q 229 350 219 329 z"},"%":{"x_min":0,"x_max":635,"ha":635,"o":"m 189 666 q 211 666 234 661 q 257 656 276 641 q 295 626 307 598 q 319 570 319 524 q 319 478 307 449 q 295 421 276 406 q 257 391 234 386 q 211 381 189 381 q 167 381 144 386 q 121 391 102 406 q 83 420 71 449 q 59 477 59 524 q 59 571 71 599 q 83 627 102 642 q 121 657 144 661 q 167 666 189 666 z m 189 618 q 173 618 161 611 q 150 604 143 592 q 136 579 133 562 q 129 544 129 524 q 129 503 133 486 q 136 468 143 456 q 150 443 161 437 q 173 430 189 430 q 206 430 217 437 q 229 443 236 456 q 243 468 246 485 q 250 502 250 524 q 250 545 246 562 q 243 580 236 592 q 229 604 217 611 q 206 618 189 618 z m 544 542 l 544 469 l 91 130 l 91 203 z m 446 291 q 468 291 491 286 q 514 282 533 267 q 552 252 564 224 q 576 196 576 149 q 576 103 564 75 q 552 47 533 31 q 514 16 491 11 q 468 6 446 6 q 424 6 401 11 q 378 16 359 31 q 340 46 328 74 q 315 103 315 149 q 315 196 328 224 q 340 252 359 267 q 378 282 401 287 q 424 291 446 291 z m 446 244 q 430 244 418 237 q 407 229 400 217 q 393 205 389 187 q 386 170 386 149 q 386 128 389 111 q 393 94 400 81 q 407 69 418 62 q 430 55 446 55 q 462 55 474 62 q 485 69 493 81 q 500 93 503 111 q 506 128 506 149 q 506 170 503 188 q 500 205 493 218 q 485 230 474 237 q 462 244 446 244 z"},"m":{"x_min":0,"x_max":925,"ha":925,"o":"m 542 399 q 558 430 575 453 q 592 476 612 490 q 631 505 655 512 q 678 519 707 519 q 768 519 803 490 q 838 462 853 407 q 865 361 865 297 l 865 0 l 731 0 l 731 335 q 731 354 728 368 q 725 383 719 393 q 710 408 697 415 q 683 421 664 421 q 646 421 629 412 q 613 402 598 388 q 583 373 570 355 q 558 337 547 320 q 548 314 548 309 q 548 304 548 298 l 548 0 l 414 0 l 414 335 q 414 354 411 368 q 408 383 402 393 q 394 408 380 415 q 366 421 347 421 q 330 421 313 412 q 297 402 283 388 q 268 373 255 355 q 243 337 232 320 l 232 0 l 99 0 l 99 313 q 99 341 98 366 q 98 391 96 412 q 95 434 92 454 q 89 473 84 492 q 116 500 147 507 q 179 513 211 519 q 214 509 217 499 q 220 489 222 477 q 224 466 226 452 q 227 438 229 421 l 235 421 q 250 444 266 463 q 282 481 300 493 q 318 506 340 512 q 362 519 390 519 q 453 519 489 488 q 524 458 538 399 z"},"#":{"x_min":0,"x_max":630,"ha":630,"o":"m 506 467 l 468 363 l 583 363 l 561 302 l 448 302 l 414 211 l 528 211 l 507 149 l 391 149 l 353 46 l 290 46 l 324 149 l 227 149 l 188 46 l 121 46 l 160 149 l 47 149 l 68 211 l 181 211 l 216 302 l 98 302 l 122 363 l 238 363 l 276 467 l 339 467 l 301 363 l 404 363 l 442 467 z m 382 302 l 280 302 l 249 211 l 347 211 z"},",":{"x_min":0,"x_max":341,"ha":341,"o":"m 90 83 q 108 95 129 102 q 149 109 169 109 q 183 109 195 106 q 207 102 216 94 q 226 86 231 75 q 236 63 236 48 q 236 29 231 12 q 226 -4 215 -24 q 204 -43 187 -68 q 170 -93 148 -128 l 72 -128 l 119 0 z"},"n":{"x_min":0,"x_max":609,"ha":609,"o":"m 219 421 q 235 445 252 464 q 270 482 289 494 q 309 507 333 513 q 356 519 385 519 q 417 519 442 512 q 467 505 485 491 q 503 478 516 458 q 528 438 536 414 q 542 389 546 360 q 549 331 549 297 l 549 0 l 415 0 l 415 335 q 415 377 396 399 q 376 421 343 421 q 325 421 307 413 q 289 404 272 389 q 256 375 242 357 q 228 339 216 320 l 216 0 l 83 0 l 83 313 q 83 353 82 379 q 81 406 79 426 q 78 437 77 444 q 76 452 75 459 q 74 467 72 474 q 70 482 68 492 q 100 500 131 507 q 163 513 195 519 q 198 509 201 499 q 204 489 206 477 q 208 466 209 452 q 211 438 212 421 z"},"h":{"x_min":0,"x_max":615,"ha":615,"o":"m 218 703 l 218 421 l 222 421 q 237 443 253 461 q 269 479 289 492 q 309 505 333 512 q 356 519 387 519 q 445 519 480 496 q 516 473 533 425 q 542 400 546 368 q 550 336 550 297 l 550 0 l 417 0 l 417 335 q 417 375 398 398 q 379 421 345 421 q 325 421 307 412 q 288 402 271 387 q 255 373 241 355 q 228 337 218 321 l 218 0 l 84 0 l 84 703 z"},"z":{"x_min":0,"x_max":533,"ha":533,"o":"m 196 410 q 173 410 156 411 q 138 412 122 414 q 105 416 89 420 q 72 425 50 433 q 57 457 65 481 q 73 505 80 527 q 104 521 120 517 q 137 513 152 511 q 167 509 184 509 q 200 508 224 508 l 472 508 l 472 435 l 230 98 l 476 98 l 476 0 l 63 0 l 63 74 l 304 410 z"},"B":{"x_min":0,"x_max":658,"ha":658,"o":"m 351 702 q 397 702 438 693 q 479 684 510 665 q 540 645 558 614 q 576 583 576 540 q 576 510 570 486 q 563 462 552 443 q 541 424 524 410 q 508 396 488 386 l 488 381 q 511 375 533 362 q 555 348 573 327 q 590 305 601 277 q 612 248 612 213 q 612 155 593 114 q 574 73 541 48 q 507 23 461 11 q 416 0 362 0 l 89 0 l 89 702 z m 305 427 q 342 427 368 432 q 394 437 410 447 q 426 458 434 475 q 442 492 442 517 q 442 542 434 559 q 426 576 410 586 q 394 597 368 602 q 342 607 305 607 l 223 607 l 223 427 z m 323 95 q 400 95 439 123 q 479 150 479 213 q 479 277 439 304 q 400 332 323 332 l 223 332 l 223 95 z"},"K":{"x_min":0,"x_max":640,"ha":640,"o":"m 483 713 l 571 640 l 334 358 l 620 0 l 448 0 l 226 300 l 226 0 l 90 0 l 90 702 l 226 702 l 226 408 z"},"R":{"x_min":0,"x_max":646,"ha":646,"o":"m 347 702 q 395 702 435 690 q 475 678 504 654 q 533 630 550 594 q 566 557 566 508 q 566 469 553 436 q 540 403 516 379 q 492 355 459 340 q 426 325 387 320 l 386 318 q 406 307 424 287 q 443 267 460 243 q 478 219 493 194 q 509 169 522 148 l 619 0 l 465 0 q 448 28 427 65 q 406 101 385 137 q 363 173 344 204 q 326 235 314 253 q 303 269 293 280 q 284 292 274 298 q 264 305 253 308 q 242 311 229 312 l 225 312 l 225 0 l 88 0 l 88 702 z m 295 405 q 327 405 351 410 q 376 416 393 427 q 410 439 418 459 q 427 479 427 507 q 427 535 418 555 q 410 574 393 586 q 376 598 351 603 q 327 608 295 608 l 225 608 l 225 405 z"},"T":{"x_min":0,"x_max":636,"ha":636,"o":"m 592 702 l 592 602 l 387 602 l 387 0 l 251 0 l 251 602 l 44 602 l 44 702 z"},"P":{"x_min":0,"x_max":632,"ha":632,"o":"m 360 702 q 412 702 452 688 q 492 674 520 647 q 548 621 562 581 q 577 542 577 490 q 577 435 559 393 q 541 351 507 323 q 474 295 426 281 q 378 267 319 267 q 292 267 267 269 q 243 271 225 272 l 225 0 l 88 0 l 88 702 z m 225 366 q 240 363 256 362 q 271 361 286 361 q 323 361 352 367 q 380 374 400 388 q 419 403 429 426 q 438 450 438 484 q 438 519 431 542 q 424 566 408 581 q 392 595 366 602 q 341 608 305 608 l 225 608 z"},"|":{"x_min":0,"x_max":339,"ha":339,"o":"m 227 767 l 227 -64 l 112 -64 l 112 767 z"},"t":{"x_min":0,"x_max":469,"ha":469,"o":"m 259 624 l 259 508 l 430 508 l 430 410 l 259 410 l 259 167 q 259 143 261 127 q 264 111 270 102 q 275 93 286 90 q 296 86 312 86 q 328 86 348 89 q 369 93 397 99 q 400 90 404 79 q 408 67 411 54 q 415 42 418 31 q 422 19 425 10 q 411 5 393 1 q 375 -3 354 -6 q 334 -9 314 -10 q 293 -12 275 -12 q 258 -12 242 -10 q 225 -9 210 -5 q 195 -1 183 4 q 170 10 161 20 q 139 41 132 77 q 125 114 125 171 l 125 410 l 52 410 l 52 508 l 125 508 l 125 624 z"},"M":{"x_min":0,"x_max":912,"ha":912,"o":"m 796 702 l 876 0 l 743 0 l 685 522 l 682 522 l 531 -2 l 381 -2 l 230 522 l 227 522 l 169 0 l 36 0 l 116 702 l 294 702 l 456 139 l 618 702 z"},"g":{"x_min":0,"x_max":602,"ha":602,"o":"m 409 508 q 432 508 449 509 q 465 509 480 511 q 496 513 512 517 q 529 521 552 527 q 560 505 567 481 q 575 457 582 433 q 566 427 552 423 q 539 419 527 416 q 514 414 502 412 q 490 411 477 411 q 486 390 489 369 q 493 349 493 327 q 493 280 479 245 q 464 210 438 186 q 422 171 401 161 q 381 151 358 145 q 336 139 313 137 q 290 134 268 134 q 229 134 196 140 q 188 117 188 103 q 188 94 191 87 q 195 81 203 76 q 216 69 234 67 q 251 65 273 65 q 279 65 289 65 q 299 65 310 65 q 321 65 331 65 q 341 65 348 65 q 387 65 419 58 q 451 51 473 36 q 496 20 509 -6 q 521 -32 521 -69 q 521 -111 500 -140 q 479 -169 445 -188 q 411 -206 367 -214 q 323 -222 276 -222 q 243 -222 209 -218 q 176 -214 145 -208 q 120 -204 98 -198 q 77 -191 58 -185 q 64 -169 77 -146 q 89 -123 104 -96 q 154 -113 199 -122 q 244 -130 281 -130 q 304 -130 324 -127 q 344 -124 359 -117 q 374 -110 382 -99 q 391 -87 391 -70 q 391 -56 385 -48 q 379 -40 369 -36 q 358 -31 344 -30 q 331 -29 314 -29 q 308 -29 300 -29 q 293 -29 286 -29 l 270 -29 q 248 -29 225 -29 q 203 -28 183 -24 q 162 -21 145 -14 q 127 -8 114 4 q 101 15 94 32 q 86 50 86 74 q 86 98 95 123 q 104 147 119 172 q 105 181 93 195 q 80 209 70 228 q 60 248 53 272 q 47 296 47 327 q 47 373 62 408 q 76 443 103 468 q 118 483 138 493 q 157 502 179 508 q 200 514 223 517 q 246 519 268 519 q 296 519 320 516 q 345 513 363 508 z m 270 429 q 227 429 202 403 q 177 377 177 327 q 177 275 202 250 q 228 225 270 225 q 313 225 338 250 q 363 276 363 327 q 363 377 337 403 q 312 429 270 429 z"},"j":{"x_min":0,"x_max":371,"ha":371,"o":"m 205 755 q 221 755 236 749 q 251 743 262 732 q 273 721 279 706 q 286 691 286 674 q 286 657 279 643 q 273 628 262 617 q 251 605 236 599 q 221 593 205 593 q 188 593 173 599 q 158 605 147 617 q 136 628 129 643 q 123 657 123 674 q 123 691 129 706 q 136 721 147 732 q 158 743 173 749 q 188 755 205 755 z m 271 508 l 271 70 q 271 36 269 8 q 266 -21 260 -45 q 253 -69 242 -91 q 231 -113 215 -134 q 203 -149 185 -169 q 167 -189 140 -216 l 53 -148 l 73 -124 q 88 -104 100 -86 q 112 -68 120 -47 q 128 -25 133 1 q 138 27 138 64 l 138 508 z"},"i":{"x_min":0,"x_max":311,"ha":311,"o":"m 156 755 q 172 755 187 749 q 202 743 213 732 q 224 721 230 706 q 237 691 237 674 q 237 657 230 643 q 224 628 213 617 q 202 605 187 599 q 172 593 156 593 q 139 593 124 599 q 109 605 98 617 q 87 628 81 643 q 74 657 74 674 q 74 691 81 706 q 87 721 98 732 q 109 743 124 749 q 139 755 156 755 z m 222 508 l 222 0 l 88 0 l 88 508 z"},"y":{"x_min":0,"x_max":628,"ha":628,"o":"m 543 508 l 543 4 q 543 -53 525 -93 q 507 -133 473 -158 q 440 -183 393 -194 q 347 -205 291 -205 q 247 -205 202 -198 q 158 -190 120 -175 q 130 -150 141 -127 q 151 -104 163 -80 q 198 -91 234 -99 q 270 -107 304 -107 q 313 -107 325 -107 q 336 -106 348 -103 q 360 -100 371 -94 q 382 -88 391 -77 q 399 -67 405 -51 q 410 -35 411 -13 l 411 86 l 406 86 q 390 62 373 44 q 355 25 335 13 q 315 0 292 -6 q 268 -12 238 -12 q 190 -12 159 3 q 128 19 109 47 q 90 76 83 117 q 75 158 75 210 l 75 508 l 208 508 l 208 172 q 208 130 228 108 q 248 86 282 86 q 300 86 318 95 q 336 104 353 118 q 369 132 383 150 q 397 168 409 187 l 409 508 z"},"@":{"x_min":0,"x_max":851,"ha":851,"o":"m 425 -107 q 374 -107 326 -94 q 279 -82 238 -59 q 197 -36 163 -3 q 130 29 106 69 q 83 108 70 153 q 57 199 57 248 q 57 296 70 342 q 83 387 106 427 q 130 466 163 498 q 197 531 238 554 q 279 577 326 589 q 373 602 425 602 q 476 602 523 589 q 571 577 612 554 q 653 531 686 498 q 720 466 743 427 q 767 387 780 342 q 793 296 793 248 q 793 201 778 166 q 764 130 738 106 q 712 82 677 69 q 643 57 602 57 q 586 57 573 57 q 560 57 548 58 q 536 58 523 59 q 511 60 497 62 q 496 70 494 80 q 493 89 491 100 q 490 110 490 120 q 489 130 489 140 l 484 140 q 474 116 462 100 q 450 84 437 75 q 424 66 411 62 q 397 58 383 58 q 366 58 348 63 q 330 67 315 80 q 299 92 288 113 q 276 134 270 167 q 268 182 266 196 q 265 210 265 226 q 265 284 278 323 q 291 363 315 387 q 339 412 373 423 q 407 434 449 435 q 471 435 504 430 q 538 426 581 414 l 575 287 q 575 275 574 259 q 573 242 573 225 q 572 207 572 190 q 571 173 571 159 q 571 157 571 153 q 571 149 572 145 q 572 141 572 137 q 572 134 572 132 q 574 132 579 132 q 583 131 587 131 q 592 131 596 131 q 600 131 602 131 q 650 131 677 159 q 704 187 704 248 q 704 303 682 352 q 661 401 623 438 q 585 474 534 495 q 483 516 425 516 q 366 516 315 495 q 264 474 227 438 q 189 401 167 352 q 146 303 146 248 q 146 192 167 143 q 189 94 227 58 q 264 21 315 0 q 366 -21 425 -21 l 453 -21 l 453 -107 z m 491 362 q 483 363 474 365 q 465 366 456 366 q 422 366 402 354 q 381 342 371 322 q 360 302 357 277 q 354 251 354 226 q 354 211 355 194 q 356 177 360 163 q 363 148 371 138 q 378 128 392 128 q 406 128 418 134 q 429 141 439 152 q 452 167 463 190 q 475 212 485 240 z"},".":{"x_min":0,"x_max":333,"ha":333,"o":"m 167 128 q 182 128 195 123 q 208 117 217 108 q 226 98 230 86 q 235 73 235 59 q 235 45 230 32 q 225 20 215 10 q 206 1 193 -4 q 181 -10 167 -10 q 152 -10 140 -4 q 127 1 118 10 q 108 20 103 32 q 98 45 98 59 q 98 74 103 87 q 109 100 118 109 q 128 118 140 123 q 153 128 167 128 z"},"p":{"x_min":0,"x_max":598,"ha":598,"o":"m 210 426 q 267 519 371 519 q 422 519 457 499 q 492 479 514 445 q 536 411 545 366 q 555 322 555 272 q 555 202 536 149 q 517 96 483 60 q 449 24 401 6 q 354 -12 296 -12 q 275 -12 255 -10 q 235 -8 215 -5 l 215 -196 l 82 -196 l 82 342 q 82 365 82 385 q 82 405 80 423 q 79 441 76 458 q 73 476 68 493 q 100 502 127 508 q 155 514 188 519 q 191 509 194 500 q 197 490 199 479 q 201 469 203 456 q 204 443 205 426 z m 214 96 q 253 86 287 86 q 315 86 340 94 q 365 102 383 119 q 400 137 411 165 q 421 192 421 232 q 421 274 417 309 q 414 343 404 368 q 394 394 375 407 q 355 421 324 421 q 301 421 284 412 q 267 403 252 386 q 242 375 232 360 q 223 345 214 328 z"},"X":{"x_min":0,"x_max":711,"ha":711,"o":"m 174 714 l 362 458 l 532 702 l 676 702 l 436 357 l 656 56 l 529 -12 l 350 235 l 188 0 l 44 0 l 277 336 l 48 647 z"},"*":{"x_min":0,"x_max":537,"ha":537,"o":"m 303 712 l 309 593 l 423 623 l 444 560 l 333 518 l 398 419 l 344 380 l 270 473 l 195 380 l 141 419 l 206 519 l 94 561 l 115 624 l 230 593 l 236 712 z"},"Y":{"x_min":0,"x_max":684,"ha":684,"o":"m 652 702 l 410 316 l 410 0 l 273 0 l 273 316 l 32 702 l 180 702 l 342 408 l 503 702 z"},"c":{"x_min":0,"x_max":519,"ha":519,"o":"m 479 19 q 459 12 435 6 q 411 0 386 -4 q 362 -8 338 -10 q 314 -12 294 -12 q 223 -12 174 5 q 125 21 95 54 q 65 86 52 134 q 39 182 39 244 q 39 309 56 360 q 73 412 106 447 q 140 482 190 500 q 241 519 308 519 q 347 519 386 513 q 424 507 459 497 l 427 400 q 397 410 370 416 q 342 421 314 421 q 276 421 250 409 q 223 396 206 374 q 189 352 181 321 q 173 291 173 254 q 173 169 202 127 q 232 86 300 86 q 342 86 378 95 q 413 104 448 116 z"},"!":{"x_min":0,"x_max":347,"ha":347,"o":"m 73 660 q 91 686 117 699 q 144 713 171 713 q 188 713 204 707 q 220 702 232 690 q 245 679 252 662 q 259 645 259 622 l 239 206 l 132 189 l 113 578 z m 181 128 q 197 128 209 123 q 222 117 231 108 q 240 98 245 86 q 250 73 250 59 q 250 45 245 32 q 239 20 230 10 q 220 1 208 -4 q 195 -10 181 -10 q 167 -10 155 -4 q 142 1 133 10 q 123 20 118 32 q 112 45 112 59 q 112 74 118 87 q 124 100 133 109 q 143 118 155 123 q 167 128 181 128 z"},"/":{"x_min":0,"x_max":659,"ha":659,"o":"m 605 702 l 166 0 l 54 0 l 493 702 z"},"[":{"x_min":0,"x_max":401,"ha":401,"o":"m 313 767 l 313 673 l 226 673 l 226 29 l 313 29 l 313 -64 l 98 -64 l 98 767 z"},"6":{"x_min":0,"x_max":579,"ha":579,"o":"m 477 561 q 469 561 460 561 q 452 562 444 562 q 395 562 355 553 q 316 545 286 527 q 256 508 235 478 q 215 448 204 404 q 229 413 260 418 q 292 423 325 423 q 347 423 369 420 q 391 417 411 411 q 431 405 449 395 q 467 385 481 370 q 505 343 518 304 q 532 264 532 212 q 532 147 511 104 q 490 61 456 35 q 421 9 378 -1 q 335 -12 291 -12 q 261 -12 232 -8 q 202 -4 175 6 q 147 17 124 35 q 101 53 84 83 q 67 112 58 153 q 49 194 50 251 q 52 307 60 356 q 68 404 84 449 q 99 493 121 524 q 144 556 171 578 q 198 600 228 614 q 259 628 291 635 q 322 643 354 646 q 385 648 415 648 q 432 648 447 648 q 463 647 477 646 z m 299 332 q 238 332 191 307 q 187 288 186 268 q 184 248 184 232 q 184 201 189 174 q 195 146 207 125 q 220 104 240 92 q 261 80 292 80 q 318 80 338 90 q 357 99 371 116 q 384 133 391 157 q 398 182 398 210 q 398 241 394 264 q 389 287 378 302 q 366 319 344 325 q 323 332 299 332 z"},"r":{"x_min":0,"x_max":464,"ha":464,"o":"m 222 421 q 240 447 255 463 q 270 479 286 490 q 302 500 318 507 q 334 514 351 516 q 368 519 384 519 q 397 519 410 517 q 423 516 435 513 q 433 500 431 484 q 428 469 425 453 q 422 438 419 422 q 415 407 411 394 q 383 399 363 403 q 342 407 326 407 q 311 407 299 403 q 286 398 274 388 q 262 378 249 361 q 236 344 220 319 l 220 0 l 86 0 l 86 313 q 86 341 85 366 q 85 391 83 412 q 82 434 79 454 q 76 473 71 492 q 103 500 135 507 q 166 514 198 519 q 202 509 205 499 q 208 489 209 477 q 211 466 213 452 q 214 438 216 421 z"},"2":{"x_min":0,"x_max":524,"ha":524,"o":"m 65 483 q 111 505 166 517 q 220 529 273 529 q 314 529 349 521 q 384 514 410 497 q 436 479 451 451 q 465 423 465 381 q 465 341 455 314 q 444 288 423 268 q 402 249 370 233 q 339 218 298 200 q 274 190 257 182 q 239 175 228 168 q 216 162 208 155 q 201 148 197 140 q 193 132 192 121 q 190 110 190 95 l 458 95 l 458 0 l 59 0 l 59 68 q 59 115 71 149 q 83 184 106 208 q 129 233 162 252 q 194 271 235 287 q 258 296 277 303 q 295 311 308 320 q 320 330 327 343 q 334 356 334 378 q 334 396 328 407 q 322 418 312 425 q 302 432 288 434 q 274 437 259 437 q 243 437 223 434 q 204 432 183 427 q 163 422 142 415 q 121 407 103 398 z"},"{":{"x_min":0,"x_max":388,"ha":388,"o":"m 309 764 l 309 679 q 278 679 261 674 q 243 669 233 658 q 224 646 221 630 q 218 614 218 593 l 218 449 q 218 417 208 394 q 197 372 181 353 q 198 332 208 310 q 218 288 218 256 l 218 112 q 218 91 221 75 q 224 59 233 47 q 243 36 261 31 q 278 26 309 26 l 309 -59 l 260 -59 q 213 -59 182 -49 q 150 -39 132 -21 q 113 -4 105 18 q 97 41 97 67 l 97 256 q 97 285 84 308 q 71 331 50 353 q 72 376 84 398 q 97 420 97 449 l 97 638 q 97 664 105 687 q 113 709 132 727 q 150 744 182 754 q 213 764 260 764 z"},"9":{"x_min":0,"x_max":579,"ha":579,"o":"m 104 -43 q 112 -44 120 -44 q 128 -44 137 -44 q 186 -44 225 -36 q 265 -28 295 -10 q 325 9 345 39 q 366 69 377 113 q 352 104 321 99 q 289 94 255 94 q 233 94 212 97 q 190 100 170 106 q 149 112 132 122 q 114 132 100 147 q 76 174 62 213 q 49 253 49 305 q 49 348 58 382 q 68 416 85 440 q 102 465 125 482 q 148 499 175 510 q 201 520 230 524 q 260 529 290 529 q 319 529 349 525 q 378 521 406 511 q 433 500 456 482 q 479 464 496 435 q 513 405 522 364 q 532 322 530 266 q 529 210 521 161 q 512 113 497 68 q 481 24 459 -8 q 436 -40 409 -62 q 381 -84 350 -98 q 319 -111 288 -119 q 256 -126 225 -129 q 194 -131 167 -131 q 148 -131 133 -131 q 117 -130 104 -129 z m 289 437 q 263 437 243 427 q 223 418 210 401 q 196 383 189 359 q 183 335 183 307 q 183 276 187 253 q 191 230 203 215 q 215 198 236 192 q 258 186 282 186 q 343 186 390 210 q 394 229 395 250 q 396 270 396 285 q 396 316 391 343 q 386 371 373 392 q 361 413 340 425 q 319 437 289 437 z"}," ":{"x_min":0,"x_max":278,"ha":278,"o":""},"I":{"x_min":0,"x_max":335,"ha":335,"o":"m 236 702 l 236 0 l 100 0 l 100 702 z"},"H":{"x_min":0,"x_max":761,"ha":761,"o":"m 672 702 l 672 0 l 536 0 l 536 342 l 225 342 l 225 0 l 89 0 l 89 702 l 225 702 l 225 442 l 536 442 l 536 702 z"},"4":{"x_min":0,"x_max":611,"ha":611,"o":"m 199 377 q 214 406 224 426 q 233 446 239 463 q 245 479 250 497 q 254 514 260 538 l 386 511 q 383 491 380 474 q 377 458 372 441 q 366 425 359 407 q 351 390 340 369 l 206 100 l 358 100 l 358 208 l 489 208 l 489 100 l 571 100 l 571 0 l 489 0 l 489 -134 l 358 -134 l 358 0 l 59 0 l 39 61 z"},"~":{"x_min":0,"x_max":559,"ha":559,"o":"m 59 277 q 89 312 121 327 q 154 341 183 341 q 219 341 248 334 q 276 328 302 320 q 327 312 350 305 q 374 298 398 298 q 419 298 439 307 q 459 316 482 340 l 526 273 q 499 238 469 224 q 438 209 409 209 l 402 209 q 364 209 333 216 q 303 223 277 231 q 251 239 229 246 q 208 252 187 252 q 167 252 146 243 q 126 234 103 211 z"},"D":{"x_min":0,"x_max":695,"ha":695,"o":"m 279 702 q 336 702 385 696 q 434 690 475 675 q 523 657 556 627 q 589 597 608 556 q 628 515 636 464 q 645 413 645 353 q 645 293 636 242 q 627 191 607 150 q 587 108 555 78 q 522 47 475 29 q 434 13 385 7 q 336 0 279 0 l 88 0 l 88 702 z m 245 99 q 325 99 376 111 q 427 123 456 151 q 484 180 495 228 q 506 276 506 350 q 506 423 495 472 q 485 521 458 550 q 431 579 385 591 q 339 603 269 603 l 225 603 l 225 99 z"},"^":{"x_min":0,"x_max":410,"ha":410,"o":"m 245 544 l 397 208 l 311 208 l 205 447 l 99 208 l 13 208 l 164 544 z"},"0":{"x_min":0,"x_max":609,"ha":609,"o":"m 305 529 q 360 529 410 508 q 459 486 496 450 q 532 413 553 364 q 575 314 575 259 q 575 203 553 153 q 532 104 496 67 q 459 31 410 10 q 360 -12 305 -12 q 249 -12 199 10 q 150 31 113 67 q 77 104 55 153 q 34 203 34 259 q 34 314 55 364 q 77 413 113 450 q 150 486 199 508 q 249 529 305 529 z m 305 416 q 273 416 246 403 q 218 391 198 370 q 177 349 165 320 q 153 292 153 259 q 153 226 165 197 q 177 168 198 147 q 218 126 246 114 q 273 102 305 102 q 335 102 363 114 q 391 126 411 147 q 432 168 444 197 q 456 226 456 259 q 456 292 444 320 q 432 349 411 370 q 391 391 363 403 q 335 416 305 416 z"},"F":{"x_min":0,"x_max":548,"ha":548,"o":"m 509 702 l 509 602 l 225 602 l 225 443 l 426 443 l 426 343 l 225 343 l 225 0 l 89 0 l 89 702 z"},"`":{"x_min":0,"x_max":281,"ha":281,"o":"m 100 577 q 78 611 61 636 q 44 661 33 681 q 22 700 17 717 q 12 734 12 752 q 12 768 17 780 q 22 791 32 799 q 41 807 53 810 q 65 814 79 814 q 99 814 119 807 q 140 800 158 787 l 129 705 l 176 577 z"},"k":{"x_min":0,"x_max":556,"ha":556,"o":"m 215 703 l 215 332 l 419 519 l 493 438 l 312 272 l 546 0 l 383 0 l 215 203 l 215 0 l 82 0 l 82 703 z"},"u":{"x_min":0,"x_max":614,"ha":614,"o":"m 537 508 l 537 194 q 537 155 538 128 q 539 102 541 81 q 542 71 542 63 q 543 55 545 48 q 546 41 548 33 q 549 25 552 16 q 520 7 489 1 q 457 -6 425 -12 q 421 -1 418 9 q 416 19 414 30 q 412 42 410 55 q 409 69 407 86 l 401 86 q 385 62 367 44 q 350 25 330 13 q 311 0 287 -6 q 263 -12 234 -12 q 173 -12 138 13 q 104 38 88 83 q 79 109 75 141 q 71 173 71 210 l 71 508 l 205 508 l 205 172 q 205 130 224 108 q 243 86 276 86 q 295 86 313 95 q 331 104 347 118 q 364 132 378 150 q 392 168 403 187 l 403 508 z"},"]":{"x_min":0,"x_max":401,"ha":401,"o":"m 303 767 l 303 -64 l 88 -64 l 88 29 l 175 29 l 175 673 l 88 673 l 88 767 z"},"U":{"x_min":0,"x_max":748,"ha":748,"o":"m 667 702 l 667 309 q 667 232 651 173 q 636 113 601 72 q 566 31 510 10 q 454 -11 374 -11 q 292 -11 236 11 q 180 33 145 74 q 111 116 96 175 q 81 234 81 309 l 81 702 l 220 702 l 220 292 q 220 246 228 208 q 236 171 254 145 q 272 119 302 104 q 331 90 374 90 q 417 90 447 104 q 477 119 495 145 q 513 171 521 209 q 528 246 528 292 l 528 702 z"},"o":{"x_min":0,"x_max":592,"ha":592,"o":"m 297 519 q 361 519 408 499 q 455 479 486 444 q 516 408 531 360 q 546 311 546 254 q 546 197 531 148 q 516 99 486 64 q 455 28 408 8 q 361 -12 297 -12 q 233 -12 187 8 q 140 28 109 64 q 79 99 64 148 q 49 197 49 254 q 49 311 64 360 q 79 408 109 444 q 140 479 187 499 q 233 519 297 519 z m 297 423 q 262 423 240 410 q 217 397 205 374 q 192 351 187 320 q 183 289 183 254 q 183 218 187 187 q 192 156 205 133 q 217 110 240 97 q 262 84 297 84 q 333 84 355 97 q 377 110 390 133 q 403 156 407 187 q 412 218 412 254 q 412 289 407 320 q 403 351 390 374 q 377 397 355 410 q 333 423 297 423 z"},"N":{"x_min":0,"x_max":769,"ha":769,"o":"m 682 702 l 682 0 l 531 0 l 224 525 l 224 0 l 87 0 l 87 702 l 238 702 l 545 177 l 545 702 z"},"+":{"x_min":0,"x_max":594,"ha":594,"o":"m 343 498 l 343 321 l 521 321 l 521 228 l 343 228 l 343 51 l 250 51 l 250 228 l 73 228 l 73 321 l 250 321 l 250 498 z"},"G":{"x_min":0,"x_max":706,"ha":706,"o":"m 636 34 q 615 23 587 15 q 560 6 529 0 q 498 -5 464 -9 q 430 -12 396 -12 q 311 -12 247 6 q 183 23 141 64 q 98 105 77 173 q 56 241 56 341 q 56 446 78 518 q 100 589 141 633 q 182 676 240 695 q 299 714 371 714 q 402 714 433 711 q 465 708 496 702 q 526 695 555 686 q 583 676 608 664 l 571 569 q 521 592 473 603 q 425 613 382 613 q 333 613 298 597 q 263 582 240 551 q 217 519 206 470 q 195 422 195 356 q 195 286 206 236 q 217 186 241 153 q 266 121 303 105 q 340 90 393 90 q 419 90 447 94 q 475 98 503 104 l 503 274 l 391 274 l 391 373 l 636 373 z"},"q":{"x_min":0,"x_max":608,"ha":608,"o":"m 387 66 q 359 30 322 9 q 285 -12 233 -12 q 182 -12 146 8 q 111 28 90 62 q 68 96 58 140 q 49 185 49 234 q 49 300 64 353 q 79 406 113 443 q 147 479 203 499 q 258 519 339 519 q 389 519 433 514 q 478 510 522 503 l 522 -194 l 390 -194 l 390 66 z m 390 412 q 370 417 351 419 q 332 421 314 421 q 285 421 261 414 q 237 407 220 390 q 202 373 192 344 q 183 316 183 273 q 183 232 186 198 q 189 164 199 139 q 209 114 229 100 q 248 86 279 86 q 299 86 314 93 q 330 100 343 113 q 356 125 367 142 q 378 159 390 180 z"},"d":{"x_min":0,"x_max":598,"ha":598,"o":"m 517 703 l 517 166 l 517 145 q 517 106 519 76 q 521 45 530 14 q 514 10 500 6 q 485 2 470 -1 q 456 -4 441 -7 q 427 -9 411 -12 q 407 -1 404 8 q 401 17 399 28 q 397 39 396 51 q 394 64 393 81 l 388 81 q 331 -12 228 -12 q 176 -12 141 8 q 106 28 84 62 q 62 96 53 141 q 43 186 43 235 q 43 306 62 359 q 81 412 115 447 q 149 483 197 501 q 245 519 302 519 q 323 519 343 517 q 363 515 383 512 l 383 703 z m 384 412 q 345 421 312 421 q 283 421 258 414 q 233 406 215 388 q 197 371 187 343 q 177 315 177 275 q 177 233 180 199 q 184 164 194 139 q 204 114 223 100 q 242 86 274 86 q 297 86 314 95 q 332 104 346 121 q 356 133 366 148 q 375 163 384 180 z"},"1":{"x_min":0,"x_max":419,"ha":419,"o":"m 257 533 l 310 492 l 310 0 l 176 0 l 176 402 l 77 364 l 44 451 z"},"5":{"x_min":0,"x_max":541,"ha":541,"o":"m 264 511 q 300 511 323 511 q 346 512 364 515 q 381 517 396 521 q 411 525 429 532 l 466 437 q 449 428 429 423 q 410 418 390 415 q 370 413 351 412 q 331 411 314 411 l 223 411 l 216 292 q 235 298 257 302 q 278 306 302 306 q 339 306 374 294 q 410 283 435 258 q 461 231 474 194 q 487 157 487 119 q 487 73 471 37 q 455 0 427 -27 q 400 -55 362 -74 q 324 -93 280 -106 q 247 -116 217 -122 q 186 -127 157 -130 q 129 -133 102 -134 q 75 -135 49 -136 l 49 -37 q 87 -35 125 -30 q 163 -25 196 -16 q 229 -6 258 7 q 287 20 308 36 q 329 53 341 75 q 353 96 353 123 q 353 146 346 163 q 339 180 327 190 q 315 200 298 205 q 282 209 262 209 q 238 209 211 203 q 184 197 156 186 l 84 238 l 101 511 z"}}}
